<mxfile host="Electron" modified="2024-07-31T02:54:38.429Z" agent="Mozilla/5.0 (Windows NT 10.0; Win64; x64) AppleWebKit/537.36 (KHTML, like Gecko) draw.io/22.0.2 Chrome/114.0.5735.289 Electron/25.8.4 Safari/537.36" etag="k2SDkG8bqS6L3-RSEFLB" version="22.0.2" type="device">
  <diagram name="ページ1" id="NKPZZOQx5-XQ6p6UbQd2">
    <mxGraphModel dx="864" dy="549" grid="1" gridSize="10" guides="1" tooltips="1" connect="1" arrows="1" fold="1" page="1" pageScale="1" pageWidth="827" pageHeight="1169" math="0" shadow="0">
      <root>
        <mxCell id="0" />
        <mxCell id="1" parent="0" />
        <mxCell id="aP6pm0OyYkuhKLj-Sk2u-33" value="：マネージャ" style="rounded=0;whiteSpace=wrap;html=1;" parent="1" vertex="1">
          <mxGeometry x="310" y="840" width="120" height="60" as="geometry" />
        </mxCell>
        <mxCell id="aP6pm0OyYkuhKLj-Sk2u-35" value="：デザイナ" style="rounded=0;whiteSpace=wrap;html=1;" parent="1" vertex="1">
          <mxGeometry x="560" y="840" width="120" height="60" as="geometry" />
        </mxCell>
        <mxCell id="aP6pm0OyYkuhKLj-Sk2u-36" value="：プログラマ" style="rounded=0;whiteSpace=wrap;html=1;" parent="1" vertex="1">
          <mxGeometry x="310" y="1040" width="120" height="60" as="geometry" />
        </mxCell>
        <mxCell id="aP6pm0OyYkuhKLj-Sk2u-37" value="" style="endArrow=none;html=1;rounded=0;exitX=1;exitY=0.5;exitDx=0;exitDy=0;entryX=0;entryY=0.5;entryDx=0;entryDy=0;" parent="1" source="aP6pm0OyYkuhKLj-Sk2u-33" target="aP6pm0OyYkuhKLj-Sk2u-35" edge="1">
          <mxGeometry width="50" height="50" relative="1" as="geometry">
            <mxPoint x="580" y="940" as="sourcePoint" />
            <mxPoint x="630" y="890" as="targetPoint" />
          </mxGeometry>
        </mxCell>
        <mxCell id="aP6pm0OyYkuhKLj-Sk2u-38" value="" style="endArrow=none;html=1;rounded=0;exitX=0.5;exitY=1;exitDx=0;exitDy=0;entryX=0.5;entryY=0;entryDx=0;entryDy=0;" parent="1" source="aP6pm0OyYkuhKLj-Sk2u-33" target="aP6pm0OyYkuhKLj-Sk2u-36" edge="1">
          <mxGeometry width="50" height="50" relative="1" as="geometry">
            <mxPoint x="430" y="990" as="sourcePoint" />
            <mxPoint x="560" y="990" as="targetPoint" />
          </mxGeometry>
        </mxCell>
        <mxCell id="aP6pm0OyYkuhKLj-Sk2u-43" value="" style="endArrow=classic;html=1;rounded=0;" parent="1" edge="1">
          <mxGeometry width="50" height="50" relative="1" as="geometry">
            <mxPoint x="440" y="850" as="sourcePoint" />
            <mxPoint x="550" y="850" as="targetPoint" />
          </mxGeometry>
        </mxCell>
        <mxCell id="aP6pm0OyYkuhKLj-Sk2u-44" value="2:設計を依頼する()" style="text;html=1;align=center;verticalAlign=middle;resizable=0;points=[];autosize=1;strokeColor=none;fillColor=none;" parent="1" vertex="1">
          <mxGeometry x="425" y="828" width="130" height="30" as="geometry" />
        </mxCell>
        <mxCell id="aP6pm0OyYkuhKLj-Sk2u-45" value="" style="endArrow=classic;html=1;rounded=0;" parent="1" edge="1">
          <mxGeometry width="50" height="50" relative="1" as="geometry">
            <mxPoint x="390" y="920" as="sourcePoint" />
            <mxPoint x="390" y="1030" as="targetPoint" />
          </mxGeometry>
        </mxCell>
        <mxCell id="aP6pm0OyYkuhKLj-Sk2u-46" value="3:プログラム作成を依頼する()" style="text;html=1;align=center;verticalAlign=middle;resizable=0;points=[];autosize=1;strokeColor=none;fillColor=none;" parent="1" vertex="1">
          <mxGeometry x="390" y="958" width="190" height="30" as="geometry" />
        </mxCell>
        <mxCell id="aP6pm0OyYkuhKLj-Sk2u-54" value="コミュニケーション図" style="rounded=0;whiteSpace=wrap;html=1;" parent="1" vertex="1">
          <mxGeometry x="100" y="740" width="130" height="40" as="geometry" />
        </mxCell>
        <mxCell id="-p8G_92hAPViej_gKdXv-1" value="" style="endArrow=none;html=1;rounded=0;exitX=1;exitY=0.5;exitDx=0;exitDy=0;entryX=0;entryY=0.5;entryDx=0;entryDy=0;" parent="1" edge="1">
          <mxGeometry width="50" height="50" relative="1" as="geometry">
            <mxPoint x="180" y="869.5" as="sourcePoint" />
            <mxPoint x="310" y="869.5" as="targetPoint" />
          </mxGeometry>
        </mxCell>
        <mxCell id="-p8G_92hAPViej_gKdXv-2" value="1:開発する()" style="text;html=1;align=center;verticalAlign=middle;resizable=0;points=[];autosize=1;strokeColor=none;fillColor=none;" parent="1" vertex="1">
          <mxGeometry x="200" y="828" width="90" height="30" as="geometry" />
        </mxCell>
        <mxCell id="-p8G_92hAPViej_gKdXv-3" value="" style="endArrow=classic;html=1;rounded=0;" parent="1" edge="1">
          <mxGeometry width="50" height="50" relative="1" as="geometry">
            <mxPoint x="185" y="850" as="sourcePoint" />
            <mxPoint x="305" y="850" as="targetPoint" />
          </mxGeometry>
        </mxCell>
      </root>
    </mxGraphModel>
  </diagram>
</mxfile>
